<?xml version="1.0" encoding="UTF-8"?>
<svg xmlns="http://www.w3.org/2000/svg" viewBox="157.832 69.299 906.915 159.095" role="img" aria-label="ASTREO">
<title>ASTREO</title>
<path fill="#ffffff" d="M 335.219 177.211 L 411.184 177.211 C 415.653 177.211 419.073 176.451 421.451 174.931 C 423.826 173.411 425.016 171.272 425.016 168.514 C 425.016 165.758 423.804 163.62 421.38 162.097 C 418.956 160.577 415.557 159.817 411.184 159.817 L 380.418 159.817 C 365.778 159.817 354.586 157.322 346.839 152.331 C 339.09 147.341 335.219 140.093 335.219 130.586 C 335.219 121.083 339.09 113.787 346.839 108.701 C 354.586 103.616 365.778 101.073 380.418 101.073 L 459.805 101.073 L 459.805 125.596 L 385.408 125.596 C 376.283 125.596 371.721 128.354 371.721 133.867 C 371.721 136.339 372.909 138.287 375.285 139.713 C 377.659 141.137 381.036 141.851 385.408 141.851 L 416.175 141.851 C 430.908 141.851 442.148 144.418 449.897 149.55 C 457.642 154.683 461.517 162.097 461.517 171.792 C 461.517 181.489 457.642 188.902 449.897 194.037 C 442.148 199.169 430.908 201.735 416.175 201.735 L 335.219 201.735 Z"/>
<path fill="#ffffff" d="M 519.114 125.595 L 474.167 125.595 L 474.167 101.072 L 599.421 101.072 L 599.421 125.595 L 554.474 125.595 L 554.474 201.735 L 519.114 201.735 Z"/>
<path fill="#ffffff" d="M 609.786 101.073 L 698.08 101.073 C 712.337 101.073 723.266 103.973 730.871 109.77 C 738.476 115.568 742.28 123.935 742.28 134.864 C 742.28 144.655 738.76 152.308 731.727 157.821 C 724.695 163.333 714.906 166.09 702.356 166.09 L 697.82 166.09 L 695.824 166.09 L 750.147 201.735 L 702.952 201.735 L 653.702 165.52 L 653.702 145.844 L 691.377 145.844 C 696.13 145.844 699.792 144.893 702.356 142.991 C 704.924 141.091 706.207 138.383 706.207 134.864 C 706.207 131.252 704.924 128.498 702.356 126.594 C 699.792 124.693 696.13 123.743 691.377 123.743 L 645.004 123.743 L 645.004 201.735 L 609.786 201.735 Z"/>
<path fill="#ffffff" d="M 757.461 101.073 L 871.105 101.073 L 871.105 123.743 L 791.396 123.743 L 791.396 141.137 L 869.681 141.137 L 869.681 160.387 L 791.396 160.387 L 791.396 166.376 C 791.396 170.938 792.798 174.195 795.6 176.142 C 798.402 178.092 802.99 179.065 809.358 179.065 L 871.105 179.065 L 871.105 201.735 L 800.521 201.735 C 785.312 201.735 774.333 199.004 767.584 193.537 C 760.831 188.073 757.461 179.113 757.461 166.66 Z"/>
<path fill="#ef7d17" d="M 245.678 124.597 L 201.763 201.735 L 165.832 201.735 L 225.004 101.073 L 267.778 101.073 L 326.95 201.735 L 289.594 201.735 Z"/>
<path fill="#ffffff" d="M 887.073 150.821 C 887.073 161.392 889.483 170.395 894.261 177.856 L 894.262 177.854 C 899.569 155.211 916.748 133.277 920.836 128.245 C 928.803 118.59 939.162 108.229 950.58 99.198 C 930.988 99.859 915.702 104.226 904.824 112.394 C 892.989 121.283 887.073 134.091 887.073 150.821"/>
<path fill="#ffffff" d="M 1038.922 112.394 C 1028.325 104.47 1013.623 100.103 994.868 99.244 C 982.689 103.337 968.981 112.372 956.45 123.645 L 956.439 123.657 C 957.31 123.628 958.169 123.588 959.074 123.588 L 984.74 123.588 C 996.242 123.588 1005.033 125.918 1011.117 130.573 C 1017.202 135.231 1020.242 141.98 1020.242 150.821 C 1020.242 157.635 1018.429 163.194 1014.843 167.524 C 1012.034 170.545 1006.592 169.916 1006.592 169.916 C 1005.237 196.964 989.205 201.934 989.205 201.934 C 989.205 201.934 991.388 202.277 998.839 202.129 C 1015.692 200.852 1029.09 196.568 1038.922 189.175 C 1050.803 180.242 1056.746 167.457 1056.746 150.821 C 1056.746 134.091 1050.803 121.283 1038.922 112.394"/>
<path fill="#ef7d17" d="M 924.743 207.702 C 942.44 207.335 959.188 196.545 959.188 196.545 C 961.988 197.032 964.468 201.673 964.422 203.361 C 964.422 203.361 939.817 215.506 927.027 215.531 C 909.163 215.565 898.615 199.047 906.08 180.113 C 906.08 180.113 901.292 208.189 924.743 207.702 M 981.492 177.816 C 983.964 175.928 987.498 176.401 989.386 178.873 C 991.275 181.345 990.801 184.88 988.329 186.768 C 985.858 188.656 982.323 188.182 980.435 185.71 C 978.547 183.239 979.021 179.704 981.492 177.816 M 1009.598 77.299 C 1005.273 77.299 1000.517 77.928 995.368 79.225 C 969.384 85.908 940.687 110.476 923.981 130.839 C 908.571 149.629 881.998 193.106 907.078 213.508 C 912.62 217.989 919.224 219.797 926.261 219.797 C 939.187 219.797 953.502 213.731 965.185 207.161 C 965.855 212.3 958.983 220.394 962.704 218.708 C 976.012 212.677 977.954 202.961 977.954 202.961 C 977.954 202.961 982.714 202.868 990.173 197.171 C 997.632 191.473 1002.243 182.046 1002.316 168.997 C 989.708 165.635 979.4 167.603 971.941 173.301 C 964.481 178.998 963.139 183.567 963.139 183.567 C 963.139 183.567 953.255 182.884 943.936 194.136 C 941.401 197.196 950.438 193.011 955.335 194.617 C 946.862 199.106 935.504 203.837 926.575 203.837 C 917.77 203.837 911.402 199.199 912.66 185.126 C 915.765 150.179 969.777 95.971 1004.762 92.944 C 1005.942 92.866 1007.082 92.787 1008.143 92.787 C 1016.044 92.787 1020.329 95.539 1022.216 99.981 C 1028.545 101.907 1034.205 104.541 1039.08 107.843 C 1039.198 89.564 1028.702 77.299 1009.598 77.299"/>
</svg>